<?xml version="1.0" encoding="UTF-8" standalone="no"?>
<!-- Created with Inkscape (http://www.inkscape.org/) -->

<svg width="1668" height="2224" viewBox="0 0 441.325 588.43333" version="1.1" id="svg5" inkscape:version="1.1 (ce6663b3b7, 2021-05-25)" sodipodi:docname="ipadpro1_splash.svg" xmlns:inkscape="http://www.inkscape.org/namespaces/inkscape" xmlns:sodipodi="http://sodipodi.sourceforge.net/DTD/sodipodi-0.dtd" xmlns="http://www.w3.org/2000/svg" xmlns:svg="http://www.w3.org/2000/svg">
  <sodipodi:namedview id="namedview7" pagecolor="#ffffff" bordercolor="#666666" borderopacity="1.0" inkscape:pageshadow="2" inkscape:pageopacity="0.0" inkscape:pagecheckerboard="0" inkscape:document-units="px" showgrid="false" inkscape:zoom="0.16040848" inkscape:cx="90.394224" inkscape:cy="1224.9976" inkscape:window-width="1366" inkscape:window-height="704" inkscape:window-x="0" inkscape:window-y="27" inkscape:window-maximized="1" inkscape:current-layer="layer1" />
  <defs id="defs2" />
  <g inkscape:label="Layer 1" inkscape:groupmode="layer" id="layer1">
    <text xml:space="preserve" style="font-size:25.0472px;line-height:125%;font-family:sans-serif;letter-spacing:0px;word-spacing:0px;fill:#000000;fill-opacity:1;stroke:none;stroke-width:0.264583px;stroke-linecap:butt;stroke-linejoin:miter;stroke-opacity:1" x="119.2935" y="434.88776" id="text3009"><tspan sodipodi:role="line" id="tspan3007" style="font-size:25.0472px;fill:#000000;fill-opacity:1;stroke:none;stroke-width:0.264583px" x="119.2935" y="434.88776">@cicciosgamino</tspan></text>
    <text xml:space="preserve" style="font-size:16.5806px;line-height:125%;font-family:sans-serif;letter-spacing:0px;word-spacing:0px;fill:#000000;fill-opacity:1;stroke:none;stroke-width:0.264583px;stroke-linecap:butt;stroke-linejoin:miter;stroke-opacity:1" x="194.96581" y="471.40082" id="text7478"><tspan sodipodi:role="line" id="tspan7476" style="font-size:16.5806px;fill:#000000;fill-opacity:1;stroke:none;stroke-width:0.264583px" x="194.96581" y="471.40082">v1.0.0</tspan></text>
    <g id="g850" transform="matrix(0.19281707,0,0,0.19281707,121.94016,111.23809)" style="stroke-width:1.3722">
      <g id="g891" transform="matrix(8.9546415,0,0,8.9546415,70.32145,61.174131)" style="stroke-width:0.153238">
        <path fill="#ffffff" d="m 86.037041,26.892496 h -7.457 c 1.711,-5.512 0.539,-11.744 -3.043,-15.975 -3.587,-4.2359996 -9.158,-6.7659996 -14.896,-6.7659996 -4.109,0 -7.852,1.29 -10.733,3.6 -3.045,-4.6 -9.469,-7.03000005 -15.613,-7.03000005 -7.055,0 -14.166,3.22500005 -16.001,10.32299965 -1.147,-0.196 -2.492,-0.347 -3.91,-0.347 -8.4559996,0 -13.50299959,5.16 -13.84599959,14.155 -0.185,4.844 1.04699999,8.677 3.66199999,11.394 1.359,1.413 3.049,2.442 4.988,3.094 v 48.546 c 0,6.663 5.4209996,12.083 12.0829996,12.083 h 43.364 c 6.662,0 12.084,-5.42 12.084,-12.083 v -9.373 c 0,0 0,10e-4 0.002,10e-4 0.006,0 0.013,-0.007 0.018,-0.008 l 9.305,0.004 c 6.661,0 12.084,-5.419 12.084,-12.083 v -27.452 c -0.007,-6.662 -5.428,-12.083 -12.091,-12.083 z" id="path2" style="stroke-width:0.182339" />
        <path fill="none" d="m 86.037041,32.934496 h -10.692 v -0.178 c -2.688,3 -6.535,4.606 -11.271,4.606 -4.216,0 -8.304,-1.251 -10.778,-2.189 -2.216,2.709 -6.748,6.943 -13.577,7.167 -0.236,0.008 -0.467,0.012 -0.696,0.012 -6.706,0 -10.612,-3.162 -12.737,-5.904 -2.943,2.091 -7.034,3.49 -11.06,3.669 v 47.768 c 0,3.321 2.719,6.041 6.042,6.041 h 43.366 c 3.322,0 6.041,-2.72 6.041,-6.041 v -9.376 c 0,-3.322 2.723,-6.041 6.043,-6.041 h 9.318 c 3.322,0 6.043,-2.719 6.043,-6.042 v -27.45 c 10e-4,-3.324 -2.72,-6.042 -6.042,-6.042 z" id="path4" style="stroke-width:0.182339" />
        <path fill="none" d="m 75.364041,32.950496 h 10.69 c 1.653,0 3.156,0.674 4.25,1.759 -1.096,-1.095 -2.606,-1.775 -4.268,-1.775 h -10.673 z" id="path6" style="stroke-width:0.182339" />
        <path fill="none" d="m 39.738041,42.355496 c 6.829,-0.225 11.361,-4.458 13.576,-7.167 2.476,0.938 6.562,2.188 10.777,2.188 4.727,0 8.567,-1.6 11.254,-4.588 v -0.032 c -2.688,3 -6.535,4.606 -11.271,4.606 -4.216,0 -8.303,-1.251 -10.778,-2.189 -2.216,2.709 -6.748,6.943 -13.577,7.167 -0.236,0.008 -0.467,0.012 -0.696,0.012 -4.608,0 -7.895,-1.493 -10.189,-3.317 2.295,1.831 5.586,3.332 10.207,3.332 0.23,0 0.461,-0.004 0.697,-0.012 z" id="path8" style="stroke-width:0.182339" />
        <path fill="none" d="m 15.245041,87.902496 v -47.769 c 4.025,-0.18 8.114,-1.577 11.056,-3.667 -0.004,-0.006 -0.01,-0.012 -0.014,-0.018 -2.943,2.091 -7.034,3.49 -11.06,3.669 v 47.768 c 0,1.669 0.688,3.186 1.792,4.281 -1.094,-1.094 -1.774,-2.604 -1.774,-4.264 z" id="path10" style="stroke-width:0.182339" />
        <polygon fill="#ff9c08" points="75.939,59.33 80.162,59.33 80.162,59.326 80.162,45.717 75.939,45.717 " id="polygon12" transform="translate(0.32204141,0.34549635)" style="stroke-width:0.182339" />
        <polygon fill="none" points="80.162,45.717 75.939,45.717 75.939,59.33 80.162,59.33 80.162,59.326 " id="polygon14" transform="translate(0.32204141,0.34549635)" style="stroke-width:0.182339" />
        <g id="g20" transform="translate(0.32204141,0.34549635)" style="stroke-width:0.153238">
          <polygon fill="#ff9c08" points="80.162,59.326 80.162,45.717 75.939,45.717 75.939,59.33 80.162,59.33 " id="polygon16" style="stroke-width:0.182339" />
          <path fill="#ff9c08" d="m 89.982,34.364 c -1.094,-1.085 -2.597,-1.759 -4.25,-1.759 h -10.69 -0.001 v -0.016 h -0.018 v -0.146 c -2.687,2.988 -6.527,4.588 -11.254,4.588 -4.215,0 -8.302,-1.25 -10.777,-2.188 -2.215,2.709 -6.747,6.942 -13.576,7.167 -0.236,0.008 -0.467,0.012 -0.696,0.012 -4.621,0 -7.912,-1.501 -10.207,-3.332 -1.038,-0.825 -1.872,-1.717 -2.534,-2.569 -2.942,2.09 -7.031,3.487 -11.056,3.667 v 47.769 c 0,1.66 0.68,3.17 1.774,4.265 1.094,1.086 2.597,1.76 4.25,1.76 h 43.366 c 3.322,0 6.041,-2.72 6.041,-6.041 v -9.376 c 0,-3.322 2.723,-6.041 6.043,-6.041 h 9.318 c 3.322,0 6.043,-2.719 6.043,-6.042 v -27.45 c 0,-1.662 -0.68,-3.173 -1.776,-4.268 z M 85.6,59.297 c 0.01,0.526 -0.062,2.496 -1.494,3.98 -0.656,0.681 -1.832,1.492 -3.692,1.492 h -7.19 c -1.502,0 -2.721,-1.219 -2.721,-2.72 v -19.05 c 0,-1.502 1.219,-2.719 2.721,-2.719 h 7.03 c 1.979,0 3.205,0.814 3.884,1.498 1.405,1.417 1.467,3.22 1.463,3.567 v 13.952 z" id="path18" style="stroke-width:0.182339" />
        </g>
        <path opacity="0.3" fill="#ffffff" enable-background="new" d="m 28.340041,81.566496 c 0,1.975 -1.6,3.573 -3.574,3.573 v 0 c -1.974,0 -3.574,-1.601 -3.574,-3.573 v 0 c 0,-1.975 1.601,-3.574 3.574,-3.574 v 0 c 1.974,-0.001 3.574,1.599 3.574,3.574 z" id="path22" style="stroke-width:0.182339">
          <animateTransform attributeName="transform" attributeType="XML" type="translate" values="0 50;0 -50;" dur="2.8s" repeatCount="indefinite" />
        </path>
        <path opacity="0.3" fill="#ffffff" enable-background="new    " d="m 39.340041,51.566496 c 0,1.975 -1.6,3.573 -3.574,3.573 v 0 c -1.974,0 -3.574,-1.601 -3.574,-3.573 v 0 c 0,-1.975 1.601,-3.575 3.574,-3.575 v 0 c 1.974,0 3.574,1.6 3.574,3.575 z" id="path24" style="stroke-width:0.182339">
          <animateTransform attributeName="transform" attributeType="XML" type="translate" values="0 50;0 -50;" dur="4s" repeatCount="indefinite" />
        </path>
        <path opacity="0.3" fill="#ffffff" enable-background="new    " d="m 65.340041,81.566496 c 0,1.975 -1.6,3.573 -3.574,3.573 v 0 c -1.973,0 -3.573,-1.601 -3.573,-3.573 v 0 c 0,-1.975 1.601,-3.574 3.573,-3.574 v 0 c 1.974,-0.001 3.574,1.599 3.574,3.574 z" id="path26" style="stroke-width:0.182339">
          <animateTransform attributeName="transform" attributeType="XML" type="translate" values="2 50;2 -50;" dur="2.2s" repeatCount="indefinite" />
        </path>
        <path opacity="0.3" fill="#ffffff" enable-background="new    " d="m 58.340041,59.566496 c 0,1.975 -1.6,3.573 -3.574,3.573 v 0 c -1.973,0 -3.573,-1.601 -3.573,-3.573 v 0 c 0,-1.975 1.601,-3.574 3.573,-3.574 v 0 c 1.974,-0.001 3.574,1.599 3.574,3.574 z" id="path28" style="stroke-width:0.182339">
          <animateTransform attributeName="transform" attributeType="XML" type="translate" values="0 50;0 -50;" dur="2.5s" repeatCount="indefinite" />
        </path>
        <path opacity="0.3" fill="#ffffff" enable-background="new    " d="m 23.487041,61.566496 c 0,0.949 -0.771,1.719 -1.721,1.719 v 0 c -0.949,0 -1.72,-0.77 -1.72,-1.719 v 0 c 0,-0.951 0.771,-1.721 1.72,-1.721 v 0 c 0.95,0 1.721,0.77 1.721,1.721 z" id="path30" style="stroke-width:0.182339">
          <animateTransform attributeName="transform" attributeType="XML" type="translate" values="0 50;0 -50;" dur="3s" repeatCount="indefinite" />
        </path>
        <path opacity="0.3" fill="#ffffff" enable-background="new    " d="m 45.487041,71.566496 c 0,2.055 -1.667,3.719 -3.721,3.719 v 0 c -2.053,0 -3.719,-1.664 -3.719,-3.719 v 0 c 0,-2.056 1.667,-3.72 3.719,-3.72 v 0 c 2.054,0 3.721,1.664 3.721,3.72 z" id="path32" style="stroke-width:0.182339">
          <animateTransform attributeName="transform" attributeType="XML" type="translate" values="0 50;0 -50;" dur="4s" repeatCount="indefinite" />
        </path>
        <path opacity="0.3" fill="#ffffff" enable-background="new    " d="m 44.199041,86.566496 c 0,1.344 -1.09,2.432 -2.434,2.432 v 0 c -1.343,0 -2.433,-1.088 -2.433,-2.432 v 0 c 0,-1.345 1.09,-2.434 2.433,-2.434 v 0 c 1.345,0 2.434,1.089 2.434,2.434 z" id="path34" style="stroke-width:0.182339">
          <animateTransform attributeName="transform" attributeType="XML" type="translate" values="0 50;0 -50;" dur="3s" repeatCount="indefinite" />
        </path>
        <path opacity="0.3" fill="#ffffff" enable-background="new    " d="m 64.321041,42.565496 c 0,1.411 -1.146,2.554 -2.556,2.554 v 0 c -1.408,0 -2.553,-1.143 -2.553,-2.554 v 0 c 0,-1.411 1.145,-2.554 2.553,-2.554 v 0 c 1.411,0 2.556,1.143 2.556,2.554 z" id="path36" style="stroke-width:0.182339">
          <animateTransform attributeName="transform" attributeType="XML" type="translate" values="0 50;0 -50;" dur="3s" repeatCount="indefinite" />
        </path>
        <path opacity="0.3" fill="#ffffff" enable-background="new    " d="m 23.431041,46.946496 c 0,0.709 -0.575,1.283 -1.285,1.283 v 0 c -0.708,0 -1.283,-0.573 -1.283,-1.283 v 0 c 0,-0.709 0.575,-1.284 1.283,-1.284 v 0 c 0.71,0 1.285,0.574 1.285,1.284 z" id="path38" style="stroke-width:0.182339">
          <animateTransform attributeName="transform" attributeType="XML" type="translate" values="0 50;0 -50;" dur="2s" repeatCount="indefinite" />
        </path>
        <path opacity="0.3" fill="#ffffff" enable-background="new    " d="m 53.397041,49.789496 c 0,0.709 -0.574,1.283 -1.284,1.283 v 0 c -0.708,0 -1.283,-0.573 -1.283,-1.283 v 0 c 0,-0.709 0.575,-1.283 1.283,-1.283 v 0 c 0.709,0 1.284,0.573 1.284,1.283 z" id="path40" style="stroke-width:0.182339">
          <animateTransform attributeName="transform" attributeType="XML" type="translate" values="0 50;0 -50;" dur="2.5s" repeatCount="indefinite" />
        </path>
        <path opacity="0.3" fill="#ffffff" enable-background="new    " d="m 53.819041,75.068496 c 0,0.711 -0.575,1.283 -1.284,1.283 v 0 c -0.708,0 -1.283,-0.572 -1.283,-1.283 v 0 c 0,-0.709 0.575,-1.281 1.283,-1.281 v 0 c 0.708,-0.003 1.284,0.572 1.284,1.281 z" id="path42" style="stroke-width:0.182339">
          <animateTransform attributeName="transform" attributeType="XML" type="translate" values="0 50;0 -50;" dur="2.2s" repeatCount="indefinite" />
        </path>
        <path opacity="0.3" fill="#ffffff" enable-background="new    " d="m 26.383041,71.116496 c 0,0.709 -0.575,1.283 -1.284,1.283 v 0 c -0.708,0 -1.283,-0.574 -1.283,-1.283 v 0 c 0,-0.709 0.575,-1.283 1.283,-1.283 v 0 c 0.709,-0.002 1.284,0.574 1.284,1.283 z" id="path44" style="stroke-width:0.182339">
          <animateTransform attributeName="transform" attributeType="XML" type="translate" values="0 50;0 -50;" dur="2s" repeatCount="indefinite" />
        </path>
        <path opacity="0.3" fill="#ffffff" enable-background="new    " d="m 66.199041,68.566496 c 0,1.344 -1.09,2.432 -2.434,2.432 v 0 c -1.344,0 -2.434,-1.088 -2.434,-2.432 v 0 c 0,-1.345 1.09,-2.434 2.434,-2.434 v 0 c 1.345,0 2.434,1.089 2.434,2.434 z" id="path46" style="stroke-width:0.182339">
          <animateTransform attributeName="transform" attributeType="XML" type="translate" values="-10 50;-10 -50;" dur="5s" repeatCount="indefinite" />
        </path>
      </g>
    </g>
  </g>
</svg>
